---
const { width = 50, height = 50, fill = "red" } = Astro.props;
---

<svg
  version="1.0"
  xmlns="http://www.w3.org/2000/svg"
  width={width}
  height={height}
  viewBox="0 0 300.000000 168.000000"
  preserveAspectRatio="xMidYMid meet"
>
  <g
    transform="translate(0.000000,168.000000) scale(0.100000,-0.100000)"
    fill={fill}
    stroke="none"
  >
    <path
      d="M342 623 c192 -2 504 -2 695 0 192 1 35 2 -347 2 -382 0 -539 -1
    -348 -2z"
    ></path>
    <path d="M1952 623 l508 -3 3 -310 2 -310 0 312 0 313 -510 0 -510 0 507 -2z"
    ></path>
    <path
      d="M1382 418 l3 -173 37 -3 37 -3 3 98 c3 97 3 98 29 101 38 4 48 -15
    51 -108 l3 -85 38 -3 37 -3 0 95 c0 52 -5 106 -11 120 -15 32 -59 50 -112 44
    l-43 -5 4 34 c5 41 -12 63 -49 63 l-29 0 2 -172z m63 47 c0 -10 -5 -20 -11
    -22 -13 -4 -27 24 -18 38 9 15 29 4 29 -16z"
    ></path>
    <path
      d="M920 424 c0 -74 4 -144 10 -154 22 -40 120 -48 139 -11 14 26 1 41
    -35 41 -19 0 -34 1 -35 3 0 1 -3 30 -5 64 l-5 62 43 3 c38 3 43 6 43 28 0 22
    -5 25 -44 28 -38 3 -42 6 -37 25 7 28 -10 47 -45 47 l-29 0 0 -136z m70 38 c0
    -8 -9 -25 -20 -39 l-20 -26 0 57 c0 55 0 56 20 39 11 -10 20 -24 20 -31z m-26
    -153 c-2 -4 3 -9 11 -13 8 -3 15 -10 15 -16 0 -7 -6 -6 -19 1 -11 7 -18 24
    -19 43 0 25 2 27 8 11 4 -11 6 -23 4 -26z"
    ></path>
    <path
      d="M358 484 c-16 -8 -28 -20 -28 -27 0 -7 -1 -77 -1 -156 0 -155 3 -164
    51 -159 23 3 25 7 23 49 l-1 47 46 -1 c26 0 57 5 70 12 81 43 82 194 2 236
    -37 19 -127 19 -162 -1z m25 -36 c-6 -7 -11 -40 -12 -72 -1 -49 2 -63 20 -83
    l22 -23 -20 -22 c-11 -13 -23 -30 -26 -38 -3 -8 -6 42 -6 112 -1 120 1 132 28
    137 2 1 -1 -5 -6 -11z m99 -25 c20 -18 24 -73 8 -104 -8 -14 -21 -19 -49 -19
    l-38 0 3 68 c1 37 3 68 3 70 4 9 58 -1 73 -15z m68 -40 c0 -27 -23 -93 -32
    -93 -5 0 -4 9 2 19 5 11 10 38 10 61 0 25 4 39 10 35 6 -3 10 -13 10 -22z"
    ></path>
    <path
      d="M678 484 c-80 -43 -77 -188 5 -230 58 -31 160 -20 172 17 11 33 -6
    41 -57 28 -40 -11 -49 -10 -72 4 -39 26 -32 35 32 42 98 11 107 16 106 61 -2
    56 -47 94 -112 94 -26 -1 -59 -7 -74 -16z m100 -50 c30 -21 28 -34 -7 -34 -16
    0 -41 -4 -55 -10 -20 -7 -26 -6 -26 3 0 24 30 52 60 56 3 1 16 -6 28 -15z
    m-89 -93 c-8 -11 -17 -21 -21 -21 -11 0 -21 48 -14 67 6 15 9 15 27 -4 18 -18
    19 -23 8 -42z"
    ></path>
    <path
      d="M1144 477 c-30 -26 -37 -74 -14 -102 7 -8 37 -22 66 -31 32 -9 54
    -21 54 -30 0 -22 -43 -27 -84 -10 -31 13 -38 13 -42 1 -12 -29 2 -50 42 -64
    78 -27 164 13 164 77 0 37 -28 62 -87 77 -70 18 -64 40 11 40 65 0 80 13 50
    46 -27 29 -124 27 -160 -4z"
    ></path>
    <path
      d="M1728 482 c-59 -36 -75 -141 -31 -200 58 -78 206 -55 234 37 17 56 4
    108 -36 148 -29 29 -39 33 -86 33 -33 0 -65 -7 -81 -18z m110 -55 c19 -23 25
    -67 12 -97 -10 -25 -18 -30 -45 -30 -34 0 -55 28 -55 73 0 51 60 88 88 54z"
    ></path>
    <path
      d="M2018 484 l-28 -15 0 -159 0 -160 25 -6 c45 -11 57 1 53 52 l-3 45
    32 -6 c37 -7 89 13 117 44 23 25 33 113 17 153 -16 42 -66 68 -131 68 -30 -1
    -67 -8 -82 -16z m126 -60 c18 -18 21 -76 6 -105 -8 -13 -21 -19 -45 -19 l-35
    0 0 70 0 70 29 0 c16 0 37 -7 45 -16z m-96 -171 c-16 -15 -18 -15 -24 0 -3 9
    -3 25 0 34 6 15 8 15 24 0 15 -16 15 -18 0 -34z"
    ></path>
    <path
      d="M550 190 c0 -5 6 -10 14 -10 10 0 16 -14 19 -42 l4 -43 1 43 c1 29 6
    42 16 42 8 0 18 5 21 10 4 6 -10 10 -34 10 -23 0 -41 -4 -41 -10z"
    ></path>
    <path
      d="M675 150 c-9 -28 -14 -54 -11 -57 3 -3 8 2 12 11 7 17 54 23 54 6 0
    -5 4 -10 10 -10 12 0 -24 93 -38 98 -5 1 -18 -20 -27 -48z"
    ></path>
    <path
      d="M806 184 c-37 -37 4 -105 54 -89 30 9 28 55 -2 54 -13 0 -17 -3 -10
    -6 6 -2 12 -11 12 -20 0 -25 -45 -11 -48 15 -5 30 16 54 39 47 11 -4 19 -2 19
    4 0 17 -47 13 -64 -5z"
    ></path>
    <path
      d="M930 150 l0 -50 38 1 c30 2 32 3 10 6 -26 4 -28 8 -28 49 0 24 -4 44
    -10 44 -5 0 -10 -22 -10 -50z"
    ></path>
    <path
      d="M1050 151 c0 -28 5 -51 10 -51 6 0 10 20 10 44 0 25 -4 48 -10 51 -6
    4 -10 -13 -10 -44z"
    ></path>
    <path
      d="M1127 194 c-11 -11 -8 -94 3 -94 6 0 10 17 10 38 l0 37 22 -37 c30
    -52 48 -49 48 6 0 25 -4 48 -10 51 -6 4 -10 -9 -11 -32 0 -33 -2 -36 -12 -19
    -26 40 -43 57 -50 50z"
    ></path>
    <path
      d="M1270 166 c0 -19 -3 -41 -6 -50 -5 -13 1 -16 32 -15 31 2 33 3 12 6
    -36 6 -37 33 -2 33 15 0 23 4 19 10 -4 6 -15 8 -26 5 -13 -4 -19 -2 -19 9 0
    10 9 16 25 16 14 0 25 5 25 10 0 6 -13 10 -30 10 -27 0 -30 -3 -30 -34z"
    ></path>
    <path
      d="M1450 150 c0 -27 5 -50 10 -50 6 0 10 9 10 20 0 15 7 20 26 20 21 0
    25 -4 21 -20 -3 -11 -1 -23 4 -26 5 -3 9 20 9 50 0 31 -4 56 -10 56 -5 0 -9
    -10 -7 -22 1 -17 -4 -24 -20 -26 -19 -3 -23 1 -23 22 0 14 -4 26 -10 26 -5 0
    -10 -22 -10 -50z"
    ></path>
    <path
      d="M1590 150 l0 -50 38 1 c30 2 32 3 10 6 -32 5 -38 33 -8 33 11 0 20 5
    20 11 0 6 -9 8 -20 4 -14 -5 -20 -2 -20 9 0 9 8 16 19 16 11 0 23 5 26 10 4 6
    -8 10 -29 10 l-36 0 0 -50z"
    ></path>
    <path
      d="M1710 151 c0 -28 5 -51 10 -51 6 0 10 7 10 15 0 8 4 15 9 15 5 0 14
    -7 21 -15 7 -8 17 -15 23 -15 5 0 2 9 -8 20 -11 13 -14 20 -6 20 8 0 11 11 9
    28 -2 22 -8 28 -35 30 l-33 3 0 -50z m44 33 c23 -9 20 -34 -4 -34 -13 0 -20 7
    -20 20 0 22 1 23 24 14z"
    ></path>
    <path
      d="M1840 150 l0 -50 38 1 c28 2 31 3 10 6 -35 6 -46 33 -13 33 14 0 25
    5 25 11 0 5 -10 9 -22 7 -11 -2 -23 3 -25 10 -3 7 5 12 21 12 13 0 28 5 31 10
    4 6 -8 10 -29 10 l-36 0 0 -50z"
    ></path>
  </g>
</svg>
